<svg width="191" height="259" viewBox="0 0 191 259" fill="none" xmlns="http://www.w3.org/2000/svg">
<rect x="2" y="2" width="31" height="31" fill="#070707" stroke="#070707" stroke-width="4"/>
<rect x="41" y="2" width="31" height="31" stroke="#070707" stroke-width="4"/>
<rect x="80" y="2" width="31" height="31" stroke="#070707" stroke-width="4"/>
<rect x="119" y="2" width="31" height="31" stroke="#070707" stroke-width="4"/>
<rect x="158" y="2" width="31" height="31" stroke="#070707" stroke-width="4"/>
<rect x="2" y="58" width="31" height="31" stroke="#070707" stroke-width="4"/>
<rect x="41" y="58" width="31" height="31" stroke="#070707" stroke-width="4"/>
<rect x="80" y="58" width="31" height="31" fill="#070707" stroke="#070707" stroke-width="4"/>
<rect x="119" y="58" width="31" height="31" stroke="#070707" stroke-width="4"/>
<rect x="158" y="58" width="31" height="31" stroke="#070707" stroke-width="4"/>
<rect x="2" y="114" width="31" height="31" stroke="#070707" stroke-width="4"/>
<rect x="41" y="114" width="31" height="31" stroke="#070707" stroke-width="4"/>
<rect x="80" y="114" width="31" height="31" stroke="#070707" stroke-width="4"/>
<rect x="119" y="114" width="31" height="31" fill="#070707" stroke="#070707" stroke-width="4"/>
<rect x="158" y="114" width="31" height="31" stroke="#070707" stroke-width="4"/>
<rect x="2" y="170" width="31" height="31" stroke="#070707" stroke-width="4"/>
<rect x="41" y="170" width="31" height="31" stroke="#070707" stroke-width="4"/>
<rect x="80" y="170" width="31" height="31" stroke="#070707" stroke-width="4"/>
<rect x="119" y="170" width="31" height="31" stroke="#070707" stroke-width="4"/>
<rect x="158" y="170" width="31" height="31" stroke="#070707" stroke-width="4"/>
<rect x="2" y="226" width="31" height="31" stroke="#070707" stroke-width="4"/>
<rect x="41" y="226" width="31" height="31" fill="#070707" stroke="#070707" stroke-width="4"/>
<rect x="80" y="226" width="31" height="31" stroke="#070707" stroke-width="4"/>
<rect x="119" y="226" width="31" height="31" stroke="#070707" stroke-width="4"/>
<rect x="158" y="226" width="31" height="31" stroke="#070707" stroke-width="4"/>
</svg>
