<svg width="60" height="60" viewBox="0 0 60 60" fill="none" xmlns="http://www.w3.org/2000/svg">
<path d="M13.275 32.277C12.9795 32.2768 12.687 32.2184 12.4141 32.1052C12.1412 31.9919 11.8932 31.826 11.6844 31.6169C11.4756 31.4079 11.3101 31.1597 11.1972 30.8867C11.0843 30.6136 11.0263 30.321 11.0265 30.0255C11.0267 29.73 11.0851 29.4375 11.1983 29.1646C11.3116 28.8917 11.4775 28.6437 11.6866 28.435C11.8956 28.2262 12.1438 28.0606 12.4168 27.9477C12.6899 27.8348 12.9825 27.7768 13.278 27.777L13.275 32.277ZM16.6665 30.0285V32.2785L16.665 32.2785L16.6665 30.0285ZM31.722 27.7785C32.3187 27.7785 32.891 28.0156 33.313 28.4375C33.7349 28.8595 33.972 29.4318 33.972 30.0285C33.972 30.6252 33.7349 31.1975 33.313 31.6195C32.891 32.0415 32.3187 32.2785 31.722 32.2785V27.7785ZM31.7497 32.2785C31.153 32.2785 30.5807 32.0415 30.1588 31.6195C29.7368 31.1975 29.4997 30.6252 29.4997 30.0285C29.4997 29.4318 29.7368 28.8595 30.1588 28.4375C30.5807 28.0156 31.153 27.7785 31.7497 27.7785V32.2785ZM48 27.7785C48.5967 27.7785 49.169 28.0156 49.591 28.4375C50.0129 28.8595 50.25 29.4318 50.25 30.0285C50.25 30.6252 50.0129 31.1975 49.591 31.6195C49.169 32.0415 48.5967 32.2785 48 32.2785V27.7785ZM13.278 27.777L13.3342 27.777L13.332 32.277L13.275 32.277L13.278 27.777ZM13.3342 27.777L14.0017 27.777L13.998 32.277L13.332 32.277L13.3342 27.777ZM14.0017 27.777L14.6677 27.777L14.6647 32.277L13.998 32.277L14.0017 27.777ZM14.6677 27.777L15.3352 27.7778L15.3315 32.2778L14.6647 32.277L14.6677 27.777ZM15.3352 27.7778L16.0012 27.7785L15.9982 32.2785L15.3315 32.2778L15.3352 27.7778ZM16.0012 27.7785L16.668 27.7785L16.665 32.2785L15.9982 32.2785L16.0012 27.7785ZM16.6665 27.7785L31.722 27.7785V32.2785L16.6665 32.2785V27.7785ZM31.7497 27.7785L48 27.7785V32.2785L31.7497 32.2785V27.7785Z" fill="#CADBFF"/>
<path d="M29.3325 48.6675L13.4505 32.7848C13.0849 32.4191 12.7948 31.985 12.5969 31.5073C12.399 31.0295 12.2971 30.5175 12.2971 30.0004C12.2971 29.4833 12.399 28.9712 12.5969 28.4935C12.7948 28.0157 13.0849 27.5816 13.4505 27.216L29.3333 11.334" stroke="#CADBFF" stroke-width="3.6" stroke-linecap="round" stroke-linejoin="round"/>
</svg>
