<svg width="308" height="287" viewBox="0 0 308 287" fill="none" xmlns="http://www.w3.org/2000/svg">
<path d="M71.541 2H48.214V143.892H71.541V2Z" stroke="#070707" stroke-width="4" stroke-miterlimit="10" stroke-linecap="round"/>
<rect x="48.4855" y="2" width="21" height="25" fill="#070707"/>
<path d="M47.994 27.038H71.596" stroke="#070707" stroke-width="4" stroke-miterlimit="10" stroke-linecap="round"/>
<path d="M47.994 27.038H71.596" stroke="#070707" stroke-width="4" stroke-miterlimit="10" stroke-linecap="round"/>
<path d="M47.994 50.64H71.596" stroke="#070707" stroke-width="4" stroke-miterlimit="10" stroke-linecap="round"/>
<path d="M47.994 50.64H71.596" stroke="#070707" stroke-width="4" stroke-miterlimit="10" stroke-linecap="round"/>
<path d="M47.994 74.242H71.596" stroke="#070707" stroke-width="4" stroke-miterlimit="10" stroke-linecap="round"/>
<path d="M47.994 74.242H71.596" stroke="#070707" stroke-width="4" stroke-miterlimit="10" stroke-linecap="round"/>
<path d="M47.994 97.844H71.596" stroke="#070707" stroke-width="4" stroke-miterlimit="10" stroke-linecap="round"/>
<path d="M47.994 97.844H71.596" stroke="#070707" stroke-width="4" stroke-miterlimit="10" stroke-linecap="round"/>
<path d="M47.994 121.446H71.596" stroke="#070707" stroke-width="4" stroke-miterlimit="10" stroke-linecap="round"/>
<path d="M117.754 121.446H2V143.948H117.754V121.446Z" stroke="#070707" stroke-width="4" stroke-miterlimit="10" stroke-linecap="round"/>
<path d="M25.877 121.446V143.893" stroke="#070707" stroke-width="4" stroke-miterlimit="10" stroke-linecap="round"/>
<path d="M94.868 121.446V143.893" stroke="#070707" stroke-width="4" stroke-miterlimit="10" stroke-linecap="round"/>
<path d="M117.755 73.252H94.868V191.097H117.755V73.252Z" stroke="#070707" stroke-width="4" stroke-miterlimit="10" stroke-linecap="round"/>
<path d="M95.088 97.019H117.754" stroke="#070707" stroke-width="4" stroke-miterlimit="10" stroke-linecap="round"/>
<path d="M95.088 167.44H117.754" stroke="#070707" stroke-width="4" stroke-miterlimit="10" stroke-linecap="round"/>
<path d="M233.838 167.44H2.21997V191.097H233.838V167.44Z" stroke="#070707" stroke-width="4" stroke-miterlimit="10" stroke-linecap="round"/>
<path d="M25.382 167.329V191.096" stroke="#070707" stroke-width="4" stroke-miterlimit="10" stroke-linecap="round"/>
<path d="M25.382 167.329V191.096" stroke="#070707" stroke-width="4" stroke-miterlimit="10" stroke-linecap="round"/>
<path d="M48.764 167.329V191.096" stroke="#070707" stroke-width="4" stroke-miterlimit="10" stroke-linecap="round"/>
<path d="M71.816 167.329V191.096" stroke="#070707" stroke-width="4" stroke-miterlimit="10" stroke-linecap="round"/>
<path d="M141.301 167.66V190.766" stroke="#070707" stroke-width="4" stroke-miterlimit="10" stroke-linecap="round"/>
<path d="M164.188 167.66V190.766" stroke="#070707" stroke-width="4" stroke-miterlimit="10" stroke-linecap="round"/>
<path d="M164.188 167.66V190.766" stroke="#070707" stroke-width="4" stroke-miterlimit="10" stroke-linecap="round"/>
<path d="M187.075 167.66V190.766" stroke="#070707" stroke-width="4" stroke-miterlimit="10" stroke-linecap="round"/>
<path d="M187.075 167.66V190.766" stroke="#070707" stroke-width="4" stroke-miterlimit="10" stroke-linecap="round"/>
<path d="M209.962 167.66V190.766" stroke="#070707" stroke-width="4" stroke-miterlimit="10" stroke-linecap="round"/>
<path d="M48.654 167.44H25.327V284.735H48.654V167.44Z" stroke="#070707" stroke-width="4" stroke-miterlimit="10" stroke-linecap="round"/>
<path d="M25.547 237.64H48.874" stroke="#070707" stroke-width="4" stroke-miterlimit="10" stroke-linecap="round"/>
<path d="M25.547 261.187H48.874" stroke="#070707" stroke-width="4" stroke-miterlimit="10" stroke-linecap="round"/>
<path d="M117.865 191.096H94.758V261.407H117.865V191.096Z" stroke="#070707" stroke-width="4" stroke-miterlimit="10" stroke-linecap="round"/>
<path d="M233.288 214.121H25.382V237.861H233.288V214.121Z" stroke="#070707" stroke-width="4" stroke-miterlimit="10" stroke-linecap="round"/>
<path d="M72.091 214.093V237.64" stroke="#070707" stroke-width="4" stroke-miterlimit="10" stroke-linecap="round"/>
<path d="M141.191 214.093V237.64" stroke="#070707" stroke-width="4" stroke-miterlimit="10" stroke-linecap="round"/>
<path d="M164.078 214.093V237.64" stroke="#070707" stroke-width="4" stroke-miterlimit="10" stroke-linecap="round"/>
<path d="M187.185 214.093V237.64" stroke="#070707" stroke-width="4" stroke-miterlimit="10" stroke-linecap="round"/>
<path d="M210.512 214.093V237.64" stroke="#070707" stroke-width="4" stroke-miterlimit="10" stroke-linecap="round"/>
<path d="M233.811 73.444H210.044V167.412H233.811V73.444Z" stroke="#070707" stroke-width="4" stroke-miterlimit="10" stroke-linecap="round"/>
<path d="M305.971 97.019H187.295V120.456H305.971V97.019Z" stroke="#070707" stroke-width="4" stroke-miterlimit="10" stroke-linecap="round"/>
<path d="M209.962 144.113H233.729" stroke="#070707" stroke-width="4" stroke-miterlimit="10" stroke-linecap="round"/>
<path d="M257.615 97.184V120.126" stroke="#070707" stroke-width="4" stroke-miterlimit="10" stroke-linecap="round"/>
<path d="M281.557 97.184V120.126" stroke="#070707" stroke-width="4" stroke-miterlimit="10" stroke-linecap="round"/>
<rect x="4" y="122" width="21" height="22" fill="#070707"/>
<rect x="4" y="169" width="21" height="22" fill="#070707"/>
<rect x="95" y="74" width="21" height="22" fill="#070707"/>
<rect x="212" y="74" width="21" height="22" fill="#070707"/>
<rect x="282" y="97" width="23" height="22" fill="#070707"/>
<rect x="212" y="216" width="21" height="22" fill="#070707"/>
<rect x="26" y="261" width="21" height="22" fill="#070707"/>
</svg>
